<svg width="467" height="262" viewBox="0 0 467 262" version="1.1" xmlns="http://www.w3.org/2000/svg" xmlns:xlink="http://www.w3.org/1999/xlink">
<g id="Canvas" fill="none">
<g id="Vector">
<path d="M 104.238 103.359L 121.816 122.432L 101.865 122.432L 91.9336 111.973C 81.3281 116.895 71.25 119.355 61.6992 119.355C 44.5312 119.355 29.9414 113.467 17.9297 101.689C 5.97656 89.9121 0 75.6445 0 58.8867C 0 42.7148 6.06445 28.8574 18.1934 17.3145C 30.3223 5.77148 44.9414 0 62.0508 0C 78.8672 0 93.3398 5.74219 105.469 17.2266C 117.598 28.7109 123.662 42.4219 123.662 58.3594C 123.662 76.4062 117.188 91.4062 104.238 103.359ZM 80.5957 99.5801L 55.9863 73.3008L 75.9375 73.3008L 93.252 91.6699C 102.686 82.5879 107.402 71.8359 107.402 59.4141C 107.402 47.0508 102.979 36.6797 94.1309 28.3008C 85.2832 19.8633 74.2969 15.6445 61.1719 15.6445C 48.6914 15.6445 38.0566 19.9219 29.2676 28.4766C 20.5371 37.0312 16.1719 47.4023 16.1719 59.5898C 16.1719 71.7773 20.6543 82.1191 29.6191 90.6152C 38.584 99.1113 49.5117 103.359 62.4023 103.359C 67.793 103.359 73.8574 102.1 80.5957 99.5801Z" transform="translate(0.855469 0.423828)" fill="black"/>
<path d="M 139.57 43.0664L 154.863 43.0664L 154.863 83.9355C 154.863 96.5332 160.4 102.832 171.475 102.832C 176.396 102.832 180.293 101.162 183.164 97.8223C 186.035 94.4238 187.471 89.7949 187.471 83.9355L 187.471 43.0664L 202.588 43.0664L 202.588 86.3965C 202.588 95.4785 199.629 102.949 193.711 108.809C 187.793 114.668 180.234 117.598 171.035 117.598C 161.66 117.598 154.072 114.668 148.271 108.809C 142.471 102.949 139.57 95.3027 139.57 85.8691L 139.57 43.0664Z" transform="translate(0.855469 0.423828)" fill="black"/>
<path d="M 282.217 43.0664L 297.51 43.0664L 297.51 115.576L 282.217 115.576L 282.217 101.162C 274.775 112.119 265.547 117.598 254.531 117.598C 244.98 117.598 236.807 113.848 230.01 106.348C 223.271 98.8477 219.902 89.7363 219.902 79.0137C 219.902 68.877 223.301 60.0293 230.098 52.4707C 236.953 44.8535 244.98 41.0449 254.18 41.0449C 259.863 41.0449 265.254 42.5977 270.352 45.7031C 275.449 48.8086 279.404 52.8516 282.217 57.832L 282.217 43.0664ZM 284.238 79.541C 284.238 72.9199 281.865 67.2656 277.119 62.5781C 272.373 57.832 266.689 55.459 260.068 55.459C 253.623 55.459 247.998 57.8027 243.193 62.4902C 238.389 67.1777 235.986 72.6855 235.986 79.0137C 235.986 85.8691 238.33 91.6992 243.018 96.5039C 247.705 101.309 253.389 103.711 260.068 103.711C 266.689 103.711 272.373 101.338 277.119 96.5918C 281.865 91.7871 284.238 86.1035 284.238 79.541Z" transform="translate(0.855469 0.423828)" fill="black"/>
<path d="M 322.646 1.49414L 337.939 1.49414L 337.939 115.576L 322.646 115.576L 322.646 1.49414Z" transform="translate(0.855469 0.423828)" fill="black"/>
<path d="M 397.105 21.5762C 381.025 21.5762 366.385 25.1762 353.185 32.3762L 346.345 12.9362C 351.385 10.0562 358.585 7.29617 367.945 4.65616C 377.545 2.01617 388.105 0.69617 399.625 0.69617C 412.345 0.69617 422.905 2.37617 431.305 5.73617C 439.945 8.85617 446.785 13.0562 451.825 18.3362C 456.865 23.3762 460.465 29.1362 462.625 35.6162C 464.785 42.0962 465.865 48.4562 465.865 54.6962C 465.865 63.3362 464.305 71.0162 461.185 77.7362C 458.065 84.4562 454.105 90.6962 449.305 96.4562C 444.505 102.216 439.345 107.736 433.825 113.016C 428.545 118.296 423.505 123.816 418.705 129.576C 413.905 135.096 409.945 141.096 406.825 147.576C 403.705 154.056 402.145 161.256 402.145 169.176C 402.145 171.816 402.145 173.856 402.145 175.296C 402.145 176.496 402.265 177.696 402.505 178.896L 383.785 178.896C 383.305 176.496 382.945 173.976 382.705 171.336C 382.465 168.456 382.345 165.576 382.345 162.696C 382.345 154.536 383.785 147.336 386.665 141.096C 389.545 134.616 393.145 128.616 397.465 123.096C 401.785 117.576 406.465 112.416 411.505 107.616C 416.545 102.576 421.225 97.5362 425.545 92.4962C 429.865 87.2162 433.465 81.6962 436.345 75.9362C 439.225 69.9362 440.665 63.2162 440.665 55.7762C 440.665 49.0562 439.465 43.5362 437.065 39.2162C 434.665 34.6562 431.425 31.0562 427.345 28.4162C 423.505 25.7762 418.945 23.9762 413.665 23.0162C 408.385 22.0562 402.865 21.5762 397.105 21.5762ZM 414.745 240.096C 414.745 245.616 412.945 250.296 409.345 254.136C 405.985 257.976 401.185 259.896 394.945 259.896C 388.705 259.896 383.785 257.976 380.185 254.136C 376.825 250.296 375.145 245.616 375.145 240.096C 375.145 234.576 376.825 229.896 380.185 226.056C 383.785 222.216 388.705 220.296 394.945 220.296C 401.185 220.296 405.985 222.216 409.345 226.056C 412.945 229.896 414.745 234.576 414.745 240.096Z" transform="translate(0.855469 0.423828)" fill="black"/>
<path d="M 56.3555 149.35L 63.4648 149.35L 72.6836 167.982L 81.6289 149.35L 88.8164 149.35L 72.5664 182.787L 56.3555 149.35Z" transform="translate(0.855469 0.423828)" fill="black"/>
<path d="M 93.5039 138.764C 93.5039 137.357 94.0247 136.146 95.0664 135.131C 96.1081 134.089 97.3451 133.568 98.7773 133.568C 100.184 133.568 101.395 134.089 102.41 135.131C 103.452 136.146 103.973 137.357 103.973 138.764C 103.973 140.196 103.452 141.42 102.41 142.436C 101.395 143.451 100.184 143.959 98.7773 143.959C 97.3451 143.959 96.1081 143.451 95.0664 142.436C 94.0247 141.42 93.5039 140.196 93.5039 138.764ZM 95.418 149.35L 102.137 149.35L 102.137 181.576L 95.418 181.576L 95.418 149.35Z" transform="translate(0.855469 0.423828)" fill="black"/>
<path d="M 111.082 181.576L 111.082 149.35L 117.723 149.35L 117.723 154.701C 119.676 152.54 121.447 150.964 123.035 149.975C 124.624 148.959 126.395 148.451 128.348 148.451C 131.264 148.451 133.751 149.415 135.809 151.342C 137.892 153.269 138.934 155.587 138.934 158.295L 138.934 181.576L 132.137 181.576L 132.137 160.287C 132.137 158.542 131.564 157.097 130.418 155.951C 129.298 154.805 127.866 154.232 126.121 154.232C 123.855 154.232 121.902 155.196 120.262 157.123C 118.621 159.024 117.801 161.329 117.801 164.037L 117.801 181.576L 111.082 181.576Z" transform="translate(0.855469 0.423828)" fill="black"/>
<path d="M 174.246 149.35L 180.887 149.35L 180.887 180.287C 180.887 184.844 179.311 188.712 176.16 191.889C 173.035 195.092 169.246 196.693 164.793 196.693C 161.408 196.693 158.296 195.769 155.457 193.92C 152.618 192.097 150.535 189.311 149.207 185.561L 156.238 185.561C 158.348 189.05 161.277 190.795 165.027 190.795C 167.579 190.795 169.754 189.87 171.551 188.021C 173.348 186.199 174.246 183.998 174.246 181.42L 174.246 175.326C 170.965 180.092 166.824 182.475 161.824 182.475C 157.71 182.475 154.116 180.782 151.043 177.396C 147.996 173.985 146.473 169.962 146.473 165.326C 146.473 160.691 147.957 156.719 150.926 153.412C 153.921 150.105 157.475 148.451 161.59 148.451C 166.902 148.451 171.121 151.016 174.246 156.146L 174.246 149.35ZM 175.184 165.404C 175.184 162.383 174.129 159.857 172.02 157.826C 169.936 155.795 167.345 154.779 164.246 154.779C 161.408 154.779 158.908 155.834 156.746 157.943C 154.585 160.053 153.504 162.488 153.504 165.248C 153.504 168.243 154.572 170.821 156.707 172.982C 158.842 175.144 161.382 176.225 164.324 176.225C 167.319 176.225 169.871 175.17 171.98 173.061C 174.116 170.951 175.184 168.399 175.184 165.404Z" transform="translate(0.855469 0.423828)" fill="black"/>
<path d="M 217.84 149.35L 224.637 149.35L 224.637 181.576L 217.84 181.576L 217.84 175.17C 214.533 180.04 210.431 182.475 205.535 182.475C 201.29 182.475 197.658 180.808 194.637 177.475C 191.642 174.141 190.145 170.092 190.145 165.326C 190.145 160.821 191.655 156.889 194.676 153.529C 197.723 150.144 201.29 148.451 205.379 148.451C 207.905 148.451 210.301 149.141 212.566 150.521C 214.832 151.902 216.59 153.699 217.84 155.912L 217.84 149.35ZM 218.738 165.561C 218.738 162.618 217.684 160.105 215.574 158.021C 213.465 155.912 210.939 154.857 207.996 154.857C 205.132 154.857 202.632 155.899 200.496 157.982C 198.361 160.066 197.293 162.514 197.293 165.326C 197.293 168.373 198.335 170.964 200.418 173.1C 202.501 175.235 205.027 176.303 207.996 176.303C 210.939 176.303 213.465 175.248 215.574 173.139C 217.684 171.003 218.738 168.477 218.738 165.561Z" transform="translate(0.855469 0.423828)" fill="black"/>
<path d="M 261.043 130.873L 267.762 130.873L 267.762 181.576L 261.121 181.576L 261.121 174.857C 257.918 179.936 253.725 182.475 248.543 182.475C 244.35 182.475 240.757 180.795 237.762 177.436C 234.767 174.076 233.27 170.04 233.27 165.326C 233.27 160.717 234.793 156.758 237.84 153.451C 240.887 150.118 244.52 148.451 248.738 148.451C 251.264 148.451 253.621 149.154 255.809 150.561C 257.996 151.967 259.741 153.803 261.043 156.068L 261.043 130.873ZM 261.824 165.404C 261.824 162.514 260.77 160.014 258.66 157.904C 256.551 155.769 254.038 154.701 251.121 154.701C 248.1 154.701 245.535 155.743 243.426 157.826C 241.342 159.883 240.301 162.41 240.301 165.404C 240.301 168.269 241.368 170.782 243.504 172.943C 245.639 175.079 248.126 176.146 250.965 176.146C 253.986 176.146 256.551 175.105 258.66 173.021C 260.77 170.938 261.824 168.399 261.824 165.404Z" transform="translate(0.855469 0.423828)" fill="black"/>
<path d="M 276.395 165.326C 276.395 160.925 278.126 157.019 281.59 153.607C 285.079 150.17 289.077 148.451 293.582 148.451C 298.217 148.451 302.267 150.144 305.73 153.529C 309.194 156.889 310.926 160.821 310.926 165.326C 310.926 169.857 309.22 173.855 305.809 177.318C 302.423 180.756 298.504 182.475 294.051 182.475C 289.285 182.475 285.145 180.769 281.629 177.357C 278.139 173.946 276.395 169.936 276.395 165.326ZM 304.363 165.326C 304.363 162.592 303.322 160.222 301.238 158.217C 299.155 156.186 296.681 155.17 293.816 155.17C 290.874 155.17 288.335 156.199 286.199 158.256C 284.09 160.287 283.035 162.722 283.035 165.561C 283.035 168.269 284.103 170.639 286.238 172.67C 288.4 174.701 290.926 175.717 293.816 175.717C 296.629 175.717 299.09 174.675 301.199 172.592C 303.309 170.508 304.363 168.087 304.363 165.326Z" transform="translate(0.855469 0.423828)" fill="black"/>
<path d="M 325.73 149.35L 325.73 155.99C 327.241 153.334 328.712 151.42 330.145 150.248C 331.603 149.05 333.491 148.451 335.809 148.451C 336.46 148.451 337.397 148.607 338.621 148.92L 336.551 155.717C 335.249 155.456 334.389 155.326 333.973 155.326C 331.681 155.326 329.754 156.133 328.191 157.748C 326.655 159.337 325.887 161.329 325.887 163.725L 325.887 181.576L 319.09 181.576L 319.09 149.35L 325.73 149.35Z" transform="translate(0.855469 0.423828)" fill="black"/>
<path d="M 82.4268 202.435L 82.4268 210.255C 80.1755 208.744 78.2352 207.989 76.606 207.989C 75.2433 207.989 74.1769 208.492 73.4067 209.5C 72.6366 210.507 72.2515 211.914 72.2515 213.721L 72.2515 222.918L 82.4268 222.918L 82.4268 229.983L 72.2515 229.983L 72.2515 259.576L 64.52 259.576L 64.52 229.983L 57.7661 229.983L 57.7661 222.918L 64.52 222.918L 64.52 214.254C 64.52 210.077 65.5864 206.745 67.7192 204.256C 69.8817 201.768 72.755 200.524 76.3394 200.524C 78.1167 200.524 80.1458 201.161 82.4268 202.435Z" transform="translate(0.855469 0.423828)" fill="black"/>
<path d="M 121.484 222.918L 129.215 222.918L 129.215 259.576L 121.484 259.576L 121.484 252.289C 117.722 257.828 113.056 260.598 107.487 260.598C 102.659 260.598 98.5265 258.702 95.0903 254.911C 91.6838 251.119 89.9805 246.513 89.9805 241.092C 89.9805 235.967 91.6986 231.494 95.1348 227.673C 98.6006 223.822 102.659 221.896 107.31 221.896C 110.183 221.896 112.908 222.681 115.485 224.251C 118.062 225.821 120.062 227.865 121.484 230.383L 121.484 222.918ZM 122.506 241.358C 122.506 238.011 121.306 235.153 118.907 232.783C 116.507 230.383 113.634 229.184 110.287 229.184C 107.028 229.184 104.184 230.368 101.755 232.738C 99.3263 235.108 98.1118 237.893 98.1118 241.092C 98.1118 244.558 99.2967 247.505 101.667 249.934C 104.036 252.363 106.91 253.578 110.287 253.578C 113.634 253.578 116.507 252.378 118.907 249.979C 121.306 247.549 122.506 244.676 122.506 241.358Z" transform="translate(0.855469 0.423828)" fill="black"/>
<path d="M 137.036 222.918L 145.123 222.918L 155.609 244.113L 165.784 222.918L 173.96 222.918L 155.476 260.954L 137.036 222.918Z" transform="translate(0.855469 0.423828)" fill="black"/>
<path d="M 177.692 241.092C 177.692 236.086 179.662 231.642 183.602 227.762C 187.571 223.852 192.118 221.896 197.243 221.896C 202.516 221.896 207.122 223.822 211.062 227.673C 215.002 231.494 216.972 235.967 216.972 241.092C 216.972 246.246 215.031 250.793 211.151 254.733C 207.3 258.643 202.842 260.598 197.776 260.598C 192.355 260.598 187.646 258.658 183.646 254.777C 179.677 250.897 177.692 246.335 177.692 241.092ZM 209.507 241.092C 209.507 237.981 208.322 235.286 205.952 233.005C 203.582 230.694 200.768 229.539 197.51 229.539C 194.162 229.539 191.274 230.709 188.845 233.049C 186.446 235.36 185.246 238.13 185.246 241.358C 185.246 244.439 186.461 247.135 188.89 249.445C 191.348 251.756 194.222 252.911 197.51 252.911C 200.709 252.911 203.508 251.726 205.908 249.356C 208.307 246.987 209.507 244.232 209.507 241.092Z" transform="translate(0.855469 0.423828)" fill="black"/>
<path d="M 232.923 222.918L 232.923 230.472C 234.641 227.451 236.315 225.273 237.944 223.94C 239.603 222.578 241.751 221.896 244.387 221.896C 245.128 221.896 246.194 222.074 247.586 222.43L 245.231 230.161C 243.75 229.865 242.773 229.717 242.299 229.717C 239.692 229.717 237.5 230.635 235.723 232.472C 233.975 234.279 233.101 236.545 233.101 239.27L 233.101 259.576L 225.37 259.576L 225.37 222.918L 232.923 222.918Z" transform="translate(0.855469 0.423828)" fill="black"/>
<path d="M 253.229 210.877C 253.229 209.277 253.822 207.9 255.007 206.745C 256.192 205.56 257.599 204.967 259.228 204.967C 260.828 204.967 262.205 205.56 263.36 206.745C 264.545 207.9 265.138 209.277 265.138 210.877C 265.138 212.506 264.545 213.898 263.36 215.054C 262.205 216.209 260.828 216.787 259.228 216.787C 257.599 216.787 256.192 216.209 255.007 215.054C 253.822 213.898 253.229 212.506 253.229 210.877ZM 255.407 222.918L 263.049 222.918L 263.049 259.576L 255.407 259.576L 255.407 222.918Z" transform="translate(0.855469 0.423828)" fill="black"/>
<path d="M 277.135 212.254L 284.866 212.254L 284.866 222.918L 292.509 222.918L 292.509 229.983L 284.866 229.983L 284.866 259.576L 277.135 259.576L 277.135 229.983L 271.047 229.983L 271.047 222.83L 277.135 222.83L 277.135 212.254Z" transform="translate(0.855469 0.423828)" fill="black"/>
<path d="M 297.308 241.092C 297.308 236.086 299.278 231.642 303.217 227.762C 307.187 223.852 311.734 221.896 316.858 221.896C 322.131 221.896 326.737 223.822 330.677 227.673C 334.617 231.494 336.587 235.967 336.587 241.092C 336.587 246.246 334.647 250.793 330.766 254.733C 326.915 258.643 322.457 260.598 317.392 260.598C 311.971 260.598 307.261 258.658 303.262 254.777C 299.292 250.897 297.308 246.335 297.308 241.092ZM 329.122 241.092C 329.122 237.981 327.937 235.286 325.567 233.005C 323.198 230.694 320.383 229.539 317.125 229.539C 313.778 229.539 310.889 230.709 308.46 233.049C 306.061 235.36 304.861 238.13 304.861 241.358C 304.861 244.439 306.076 247.135 308.505 249.445C 310.964 251.756 313.837 252.911 317.125 252.911C 320.324 252.911 323.124 251.726 325.523 249.356C 327.922 246.987 329.122 244.232 329.122 241.092Z" transform="translate(0.855469 0.423828)" fill="black"/>
<path d="M 8.22656 232.396L 13.4062 238.287C 12.3229 239.811 11.5104 241.131 10.9688 242.248C 10.3932 243.365 10.1055 244.686 10.1055 246.209C 10.1055 249.798 11.4258 251.592 14.0664 251.592C 15.9622 251.592 17.8073 249.324 19.6016 244.787C 21.362 240.217 23.3086 236.933 25.4414 234.936C 27.5742 232.938 30.1471 231.939 33.1602 231.939C 36.681 231.939 39.7617 233.378 42.4023 236.256C 45.0091 239.133 46.3125 242.519 46.3125 246.412C 46.3125 252.337 43.5703 257.195 38.0859 260.986L 34.7344 254.029C 37.1042 251.592 38.2891 249.053 38.2891 246.412C 38.2891 244.584 37.7982 242.993 36.8164 241.639C 35.8008 240.251 34.6328 239.557 33.3125 239.557C 30.9766 239.557 28.8776 241.96 27.0156 246.768C 25.1536 251.575 23.2747 254.91 21.3789 256.771C 19.4492 258.6 17.0794 259.514 14.2695 259.514C 10.7826 259.514 7.88802 258.21 5.58594 255.604C 3.25 252.963 2.08203 249.662 2.08203 245.701C 2.08203 241.74 4.13021 237.305 8.22656 232.396Z" transform="translate(0.855469 0.423828)" fill="black"/>
<path d="M 25.8984 181.209L 25.8984 216.959C 30.1979 216.18 33.3464 214.42 35.3438 211.678C 37.3073 208.902 38.2891 205.889 38.2891 202.639C 38.2891 197.628 36.207 193.43 32.043 190.045L 36.918 183.596C 43.181 188.437 46.3125 194.92 46.3125 203.045C 46.3125 209.274 44.1797 214.488 39.9141 218.686C 35.6484 222.883 30.3503 224.982 24.0195 224.982C 18.0951 224.982 12.9661 222.867 8.63281 218.635C 4.26562 214.369 2.08203 209.173 2.08203 203.045C 2.08203 197.019 4.29948 191.856 8.73438 187.557C 13.1354 183.257 18.8568 181.141 25.8984 181.209ZM 18.8398 216.045L 18.8398 190.451C 13.0846 193.295 10.207 197.493 10.207 203.045C 10.207 209.105 13.0846 213.438 18.8398 216.045Z" transform="translate(0.855469 0.423828)" fill="black"/>
<path d="M 3.25 172.576L 3.25 163.74L 26.8633 163.74C 34.1419 163.74 37.7812 160.541 37.7812 154.143C 37.7812 151.299 36.8164 149.048 34.8867 147.389C 32.9232 145.73 30.2487 144.9 26.8633 144.9L 3.25 144.9L 3.25 136.166L 28.2852 136.166C 33.5326 136.166 37.849 137.876 41.2344 141.295C 44.6198 144.714 46.3125 149.081 46.3125 154.396C 46.3125 159.813 44.6198 164.197 41.2344 167.549C 37.849 170.9 33.431 172.576 27.9805 172.576L 3.25 172.576Z" transform="translate(0.855469 0.423828)" fill="black"/>
</g>
</g>
</svg>

